<svg xmlns="http://www.w3.org/2000/svg" viewBox="0 0 8 8" shape-rendering="crispEdges">
  <rect width="8" height="8" fill="#b98563"/>
  <path fill="#35231c" d="M0 0h8v2H7v1H1V2H0zm0 2h1v3H0zm7 0h1v3H7z"/>
  <path fill="#704936" d="M1 1h2v1H1zm4 0h2v1H5zM1 5h1v1H1zm5 0h1v1H6z"/>
  <path fill="#f2eee7" d="M1 3h2v1H1zm4 0h2v1H5z"/>
  <path fill="#466b9f" d="M2 3h1v1H2zm3 0h1v1H5z"/>
  <path fill="#8b5a43" d="M3 4h2v2H3z"/>
  <path fill="#3b2922" d="M1 6h2v1h2V6h2v2H1z"/>
  <path fill="#d89a79" d="M3 6h2v1H3z"/>
</svg>
